inDegrees=no
num_controls=7
num_derivatives=13
num_iterations=99
num_multipliers=7
num_parameters=0
num_slacks=7
num_states=26
objective=4.965020
objective_accelerations=0.697979
objective_balance=0.085413
objective_effort=0.676985
objective_height=3.450985
objective_ligament=0.053659
solver_duration=1022.637241
status=Solve_Succeeded
success=true
DataType=double
version=3
OpenSimVersion=4.4-2022-07-23-0e9fedc
endheader
time	/jointset/ground_pelvis/pelvis_tilt/value	/jointset/ground_pelvis/pelvis_tx/value	/jointset/ground_pelvis/pelvis_ty/value	/jointset/hip_l/hip_flexion_l/value	/jointset/hip_l/hip_adduction_l/value	/jointset/hip_l/hip_rotation_l/value	/jointset/back/lumbar_extension/value	/jointset/patellofemoral_l/patellar_flexion_l/value	/jointset/knee_l/knee_flexion_l/value	/jointset/knee_l/knee_adduction_l/value	/jointset/knee_l/knee_rotation_l/value	/jointset/ankle_l/ankle_angle_l/value	/jointset/subtalar_l/subtalar_angle_l/value	/jointset/ground_pelvis/pelvis_tilt/speed	/jointset/ground_pelvis/pelvis_tx/speed	/jointset/ground_pelvis/pelvis_ty/speed	/jointset/hip_l/hip_flexion_l/speed	/jointset/hip_l/hip_adduction_l/speed	/jointset/hip_l/hip_rotation_l/speed	/jointset/back/lumbar_extension/speed	/jointset/patellofemoral_l/patellar_flexion_l/speed	/jointset/knee_l/knee_flexion_l/speed	/jointset/knee_l/knee_adduction_l/speed	/jointset/knee_l/knee_rotation_l/speed	/jointset/ankle_l/ankle_angle_l/speed	/jointset/subtalar_l/subtalar_angle_l/speed	/forceset/tau_hip_flexion_l	/forceset/tau_hip_adduction_l	/forceset/tau_hip_rotation_l	/forceset/tau_knee_flexion_l	/forceset/tau_ankle_angle_l	/forceset/tau_subtalar_angle_l	/forceset/tau_lumbar_extension	lambda_cid13_p0	lambda_cid13_p1	lambda_cid13_p2	lambda_cid13_p3	lambda_cid13_p4	lambda_cid13_p5	lambda_cid14_p0	/jointset/ground_pelvis/pelvis_tilt/accel	/jointset/ground_pelvis/pelvis_tx/accel	/jointset/ground_pelvis/pelvis_ty/accel	/jointset/hip_l/hip_flexion_l/accel	/jointset/hip_l/hip_adduction_l/accel	/jointset/hip_l/hip_rotation_l/accel	/jointset/back/lumbar_extension/accel	/jointset/patellofemoral_l/patellar_flexion_l/accel	/jointset/knee_l/knee_flexion_l/accel	/jointset/knee_l/knee_adduction_l/accel	/jointset/knee_l/knee_rotation_l/accel	/jointset/ankle_l/ankle_angle_l/accel	/jointset/subtalar_l/subtalar_angle_l/accel	gamma_cid13_p0	gamma_cid13_p1	gamma_cid13_p2	gamma_cid13_p3	gamma_cid13_p4	gamma_cid13_p5	gamma_cid14_p0
0.5	-0.1587904869384456	-0.06726237628309556	0.6866474997584061	1.36145635338662	-0.3118880147590399	-0.02588736585406434	-0.8364370061926212	1.346846240193117	1.346846240193175	0.03278581984991737	-0.1745290147455065	0.2454413572832299	0.07295041250091827	-0.1865726571362647	-0.1190160899253969	-0.8810635541696543	2.692635489045471	0.002737064719157624	0.5609370495108897	-0.7603964747808282	2.802576488213957	2.802576488213956	0.4958257684064057	-2.22278848357398e-05	0.4829661886632568	0.208090295855429	-0.3459221660658871	0.01244550528275689	-0.01864298384238711	-0.313317169650901	0.08265485761068982	0.04076197894351254	0.386062171206779	-17.29047686490151	-12.29770988038121	-1.209713125341522	-16.33031703874657	-711.4734838806925	-61.5665348341991	-0.04281079624250775	1.330581400754155	1.178352109871148	-0.2906555714407799	-2.219544667694588	0.1826430938829383	-0.8430879251354131	2.643425053842459	-2.732341065871355	-2.732341065871348	-0.3104371758221879	0.03812078019543306	-2.05458306585628	-0.494008874800858	-1.424426271479947e-07	-1.498399667053392e-06	2.650640538348274e-07	-4.078578274908852e-07	-2.609850728415594e-07	-5.030189098466942e-09	-2.784712686246863e-07
0.51	-0.1605892414845575	-0.06839380838617234	0.6778244497891845	1.388268840712778	-0.3118523974257748	-0.02032076623779997	-0.843908525377423	1.374731826764064	1.37473182676411	0.03772740129661271	-0.1745291031576023	0.2501668033682873	0.07500458247880817	-0.1731284601222019	-0.107291218358068	-0.8833232680739238	2.6695424905667	0.004383799988957305	0.5523844469387214	-0.7338971651569801	2.774179116505085	2.77417911650509	0.4924292432535654	-7.606909906505365e-07	0.4620118562339245	0.2026646025650817	-0.3543095658696234	0.01165066810237385	-0.01938225351956668	-0.3209225397734727	0.08231041391393464	0.03983593395437739	0.3944877554877096	-18.0202533793699	-11.55462715672999	-1.571617924846543	-15.98084854093834	-720.5938855836188	-60.98467400577027	-0.04263775105914518	1.358774790731444	1.166337747303801	-0.1601998273246509	-2.402130044232116	0.1553504852546907	-0.8613609194283757	2.654713470098644	-2.947642451592716	-2.947642451591919	-0.3637042869982824	-0.01661831207455028	-2.132592117713622	-0.5785157753753303	-7.846189881916573e-08	-1.344970013124121e-06	3.455742626154998e-08	-4.386749157470559e-07	-2.182282603757638e-07	-1.209427368148803e-07	-2.23433856724382e-07
0.52	-0.1622520668727313	-0.069408635160148	0.6689854885754396	1.41484080753289	-0.3118003803914669	-0.01483969554648958	-0.8511147455552988	1.402322598172282	1.402322598172322	0.04263312867136424	-0.1745291324979747	0.254679359371803	0.07700216227995001	-0.1593868255481691	-0.09569502410517447	-0.8842458030743718	2.644531387837375	0.006017004927801501	0.5438312645197209	-0.7073366733954204	2.743613455668307	2.743613455668317	0.4886549540213965	-1.041353928920051e-05	0.4403881723549143	0.1967722605057885	-0.3626969656733761	0.0108558309219973	-0.02012152319680901	-0.3285279098960479	0.08196597021718501	0.03890988896525448	0.4029133397686247	-18.7672157442187	-10.80496297585225	-1.938653288403493	-15.63088476355735	-729.9398467854577	-60.4477427798835	-0.04238267437887441	1.390068912748168	1.152616646984045	-0.0232197906764988	-2.603165517805673	0.1799370276918373	-0.8432038945017842	2.655661481384797	-3.165998891452701	-3.165998891452735	-0.3859899916879113	0.0318967717667227	-2.188453355791923	-0.5873386285900517	-2.662763875910433e-08	-1.292887098581797e-06	-2.292011379102271e-07	-4.786024499055948e-07	-1.917424076400384e-07	-2.966636453930581e-07	-1.779187152743556e-07
0.53	-0.1637762075004433	-0.07030822438428963	0.6601439698022006	1.441153312958525	-0.3117318968367687	-0.009444603172403806	-0.8580551883159746	1.429597154429584	1.429597154429594	0.04749997223042837	-0.1745292157306032	0.2589726947048613	0.07893887372784122	-0.1454106366558143	-0.0842515777290747	-0.883834645796077	2.61765924976746	0.007681436660695829	0.5351720045976655	-0.6807602368383784	2.71095669307487	2.710956693074878	0.4846694847522068	-7.940774757121666e-06	0.4182000965369716	0.1905092796914654	-0.3704661158867458	0.009926924858052275	-0.02090395201731678	-0.3359073417330077	0.08169689559896658	0.03787853639605476	0.4107431253326035	-19.46776966466503	-10.00550166100271	-2.327547970923257	-15.24891986542087	-738.7673168296614	-59.7865009413573	-0.04205162563767081	1.405968988891489	1.135795167064292	0.1067437875282691	-2.775823940034786	0.160064305069862	-0.8797382502856598	2.657381028126575	-3.366649548484861	-3.366649548485175	-0.4116666392944869	-0.01593164137955925	-2.245852305319758	-0.6546465113557357	2.208898559609371e-08	-1.243681685266012e-06	-4.766396584446285e-07	-5.136575730031939e-07	-1.710162131307454e-07	-4.958244713013534e-07	-1.321891376766229e-07
0.54	-0.1651596712169512	-0.07109426183784216	0.6513132546618339	1.467187779805765	-0.3116466953529454	-0.004136593639388844	-0.8647301174540284	1.456534916139913	1.456534916139898	0.05232559284785782	-0.1745293450696142	0.2630417757576351	0.08081118162688887	-0.1312514433069584	-0.07298466998735412	-0.8820850764999436	2.588923672159529	0.009360590752855679	0.526414696306479	-0.6542339488708248	2.676254546273604	2.67625454627361	0.48041036569262	-1.96348172653503e-05	0.3955373162980556	0.1838915507370504	-0.3782352661001351	0.008998018794099774	-0.02168638083779818	-0.3432867735699658	0.08142782098075084	0.03684718382684642	0.4185729108965641	-20.18876032514173	-9.198866144152163	-2.721695233490402	-14.85084883281636	-747.8610747103083	-59.1670868142636	-0.04173710970560594	1.426669804048411	1.117308920108178	0.2444626128911851	-2.975853425408764	0.1828814995449562	-0.8628135683279613	2.645631763487153	-3.575075733018644	-3.575075733018661	-0.4407199497673435	0.02906341035868102	-2.283394239986617	-0.6582882566084188	6.735631087357054e-08	-1.197659890328524e-06	-7.060219604866143e-07	-5.433219434376256e-07	-1.566624064464417e-07	-7.209188227663747e-07	-8.62223115750451e-08
0.55	-0.1664008686553332	-0.07176858449045159	0.6425066894778271	1.492925772053462	-0.3115445166792216	0.0010831677860027	-0.8711401395196183	1.483115696955734	1.483115696955733	0.05710760922658074	-0.1745294547191554	0.266882218506407	0.0826158296096635	-0.1169798307208926	-0.06191568871041001	-0.8790069233758998	2.558372610944427	0.01107375523882144	0.5175310095102217	-0.6277930542667062	2.639581230145704	2.639581230145703	0.4759307187028758	-4.757937033273048e-06	0.3725057955585882	0.1769876262571815	-0.3853172624366576	0.007946671007831665	-0.02252450322701516	-0.350328886887437	0.08123418848166304	0.03572710121488763	0.4257466687531051	-20.85418962832269	-8.353493299697254	-3.133359313430296	-14.44298297138674	-756.3203815728793	-58.42144274277157	-0.04143396042629235	1.428623852527117	1.096206604530027	0.3726174343478624	-3.140065489231317	0.1654814212583703	-0.9022285534161233	2.63992980599699	-3.761505334477166	-3.761505334478152	-0.4610567372090594	-0.01287188168071323	-2.319884656187885	-0.7137245757877327	1.071079255087866e-07	-1.151649567101961e-06	-9.04260592655275e-07	-5.667728689816488e-07	-1.45866401605911e-07	-9.380901908892439e-07	-4.387413735138746e-08
